<?xml version="1.0" encoding="utf-8"?>
<!-- Generator: Adobe Illustrator 16.0.3, SVG Export Plug-In . SVG Version: 6.00 Build 0)  -->
<!DOCTYPE svg PUBLIC "-//W3C//DTD SVG 1.1//EN" "http://www.w3.org/Graphics/SVG/1.1/DTD/svg11.dtd">
<svg version="1.1" id="Layer_1" xmlns="http://www.w3.org/2000/svg" xmlns:xlink="http://www.w3.org/1999/xlink" x="0px" y="0px"
	 width="841.89px" height="595.281px" viewBox="0 0 841.89 595.281" enable-background="new 0 0 841.89 595.281"
	 xml:space="preserve">
<g>
	<g>
		<g>
			<g>
				<path d="M465.847,116.181c-5.77,5.875-15.609,17.727-18.355,26.717c-3.215,10.531-5.699,15.225,4.301,44.6
					c10.775,31.654,19.35,63.172-16.922,94.949c-38.579,33.803-75.969,53.803-75.969,53.803
					c27.102-43.646,16.173-86.344,43.691-107.496c1.393-1.068,2.2-1.684,2.2-1.684s-23.391,6.066-50.295-1.727
					c-27.957-8.096-64.88-46.691-64.88-46.691s41.423,22.846,82.624,2.955c22.588-10.906,32.738-6.094,37.26-0.428
					c4.521,5.668-23.775-31.775-4.289-49.104c18.029-16.029,36.195-2.629,36.195-2.629c14.221-13.199,50.146-36.037,50.146-36.037
					S471.757,110.165,465.847,116.181z"/>
			</g>
		</g>
	</g>
</g>
</svg>
